<svg xmlns="http://www.w3.org/2000/svg" fill="yellow" class="w-5 h-5 text-yellow-400" viewBox="0 0 20 20">
  <path d="M11.3 1.046a.75.75 0 0 0-1.4 0l-.849 2.47a5.25 5.25 0 0 1-3.285 3.285l-2.47.849a.75.75 0 0 0 0 1.4l2.47.849a5.25 5.25 0 0 1 3.285 3.285l.849 2.47a.75.75 0 0 0 1.4 0l.849-2.47a5.25 5.25 0 0 1 3.285-3.285l2.47-.849a.75.75 0 0 0 0-1.4l-2.47-.849a5.25 5.25 0 0 1-3.285-3.285l-.849-2.47ZM3.75 10a.75.75 0 0 0-1.368-.39l-.5.667a.75.75 0 0 0 0 .847l.5.667A.75.75 0 0 0 3.75 10Zm12.868-.39a.75.75 0 0 0-1.368.39.75.75 0 0 0 1.368.39l.5-.667a.75.75 0 0 0 0-.847l-.5-.667Z" />
</svg>
